<?xml version="1.0" standalone="no"?>
<!DOCTYPE svg PUBLIC "-//W3C//DTD SVG 20010904//EN"
 "http://www.w3.org/TR/2001/REC-SVG-20010904/DTD/svg10.dtd">
<svg version="1.0" xmlns="http://www.w3.org/2000/svg"
 width="700.000000pt" height="700.000000pt" viewBox="0 0 700.000000 700.000000"
 preserveAspectRatio="xMidYMid meet">
<metadata>
Created by potrace 1.11, written by Peter Selinger 2001-2013
</metadata>
<g transform="translate(0.000000,700.000000) scale(0.100000,-0.100000)"
fill="#000000" stroke="none">
<path d="M3299 6716 c-2 -2 -42 -6 -89 -10 -47 -3 -94 -8 -105 -10 -11 -2 -45
-7 -75 -10 -165 -21 -440 -90 -631 -160 -310 -112 -683 -322 -907 -510 -331
-277 -546 -522 -746 -849 -72 -118 -186 -346 -237 -472 -71 -179 -149 -448
-175 -610 -3 -16 -9 -52 -14 -80 -9 -49 -13 -83 -29 -240 -8 -77 -6 -509 2
-570 3 -16 8 -59 12 -95 4 -36 8 -67 10 -70 2 -3 6 -30 10 -60 3 -30 15 -92
25 -137 11 -46 22 -93 24 -105 12 -62 81 -281 118 -376 292 -751 845 -1364
1551 -1721 165 -83 308 -143 456 -191 126 -41 361 -99 465 -115 32 -5 108 -16
136 -20 198 -27 619 -27 805 0 17 3 46 7 65 10 38 5 81 13 120 20 14 3 39 8
55 11 69 12 267 65 365 97 1020 339 1810 1171 2095 2207 19 69 37 139 40 155
28 147 36 195 41 230 3 22 7 49 9 60 26 127 27 653 1 805 -2 14 -8 48 -12 75
-4 28 -8 52 -9 55 0 3 -4 28 -9 55 -17 115 -109 449 -145 530 -5 11 -19 47
-32 80 -35 93 -123 276 -180 378 -217 381 -487 693 -850 981 -183 146 -444
299 -699 409 -190 82 -449 162 -640 197 -30 6 -64 12 -75 14 -46 8 -103 17
-150 22 -27 3 -66 7 -85 10 -41 5 -506 14 -511 10z m-79 -1326 l0 -210 140 0
140 0 0 210 0 210 140 0 140 0 0 -210 c0 -161 3 -210 13 -211 6 -1 26 -2 42
-4 208 -17 420 -76 555 -156 263 -156 387 -437 347 -785 -32 -273 -213 -495
-496 -606 -45 -18 -81 -34 -81 -37 0 -3 35 -14 78 -24 223 -54 444 -218 538
-402 73 -140 93 -230 92 -409 -3 -578 -378 -905 -1075 -935 -10 -1 -13 -50
-13 -211 l0 -210 -140 0 -140 0 0 210 0 210 -140 0 -140 0 0 -210 0 -210 -140
0 -140 0 0 210 0 210 -350 0 -350 0 0 1680 0 1680 350 0 350 0 0 210 0 210
140 0 140 0 0 -210z"/>
<path d="M2565 4910 c-1 -3 -2 -274 -2 -603 l0 -598 646 4 c355 2 657 7 671
10 14 4 41 10 60 13 19 3 38 8 43 11 4 2 19 7 34 9 75 14 210 100 279 179 90
103 125 201 125 355 1 187 -50 330 -156 435 -103 103 -228 154 -441 181 -65 8
-1254 12 -1259 4z"/>
<path d="M2563 2761 c0 -605 2 -670 16 -673 28 -6 1186 -1 1252 6 202 19 261
32 353 77 89 44 158 92 200 139 57 64 105 143 126 204 30 90 31 99 36 226 6
194 -36 330 -138 444 -105 118 -277 197 -503 233 -22 3 -333 8 -691 10 l-651
4 0 -670z"/>
</g>
</svg>
